<svg width="32" height="32" viewBox="0 0 32 32" fill="none" xmlns="http://www.w3.org/2000/svg">
<path d="M28 16V16.2067C27.98 17.3533 27.8 18.46 27.48 19.5067C27.1867 20.46 26.78 21.36 26.28 22.1933C26.28 22.1933 26.28 22.1933 26.2733 22.2C25.64 23.2533 24.8467 24.1933 23.9333 25C23.9 25.0333 23.8733 25.06 23.84 25.0867C23.84 25.0867 23.84 25.0933 23.8333 25.0933C23.6533 25.2467 23.4733 25.4 23.2867 25.54C22.8 25.9133 22.2933 26.2467 21.7533 26.54H21.7467C20.9667 26.9667 20.1333 27.3067 19.26 27.5533C19.0667 27.6067 18.8733 27.6533 18.68 27.7C17.98 27.86 17.2533 27.9533 16.5133 27.9867C16.5067 27.9867 16.5067 27.9867 16.5067 27.9867C16.3333 27.9933 16.1733 28 16 28C15.7067 28 15.42 27.9867 15.1333 27.9667C12.46 27.78 10.0333 26.7133 8.13333 25.0533C7.74667 24.7267 7.38667 24.3667 7.05333 23.9933C6.80667 23.72 6.58 23.44 6.36 23.1467V23.14C5.71333 22.2733 5.18 21.3067 4.78667 20.2733V20.2667C4.3 18.9867 4.02 17.6067 4.00667 16.1533C4 16.1 4 16.0533 4 16V15.9333C4 15.6667 4.01333 15.4067 4.03333 15.1467V15.14C4.05333 14.9133 4.07333 14.6933 4.1 14.4667C4.12667 14.28 4.15333 14.0933 4.18667 13.9133C4.27333 13.4267 4.38667 12.96 4.53333 12.5C4.56667 12.3667 4.60667 12.2333 4.65333 12.1067C5.23333 10.4067 6.18 8.88667 7.4 7.63333C7.92 7.1 8.48667 6.61333 9.09333 6.18667C9.17333 6.13333 9.24667 6.08 9.32667 6.03333C10.82 5.02 12.5667 4.34667 14.4467 4.11333C14.5467 4.09333 14.6533 4.08667 14.76 4.07333C14.82 4.06667 14.88 4.06 14.94 4.05333C15.2867 4.01333 15.64 4 16 4H16.0267C18.04 4.00667 19.9333 4.5 21.5933 5.38667C21.66 5.42 21.7333 5.46 21.8 5.5C22.8867 6.09333 23.8733 6.86 24.7133 7.75333C24.9733 8.02 25.2133 8.3 25.4333 8.58667C25.6 8.79333 25.7467 9.00667 25.8933 9.22C26.6 10.24 27.1533 11.38 27.5067 12.6C27.7533 13.42 27.9067 14.2733 27.9667 15.1533C27.9933 15.4333 28 15.7133 28 16Z" fill="url(#paint0_radial_12240_11998)"/>
<path d="M8.71296 20.5352C8.71429 20.5339 8.73696 20.4906 8.75763 20.4172L6.83496 19.8679C7.09163 18.9699 11.1616 14.4392 13.185 12.6646L14.5036 14.1679C12.3576 16.0512 9.04363 19.9232 8.71296 20.5352Z" fill="url(#paint1_linear_12240_11998)"/>
<path d="M17.6844 8.63074L15.6924 8.4554C15.7984 7.24674 16.4477 4.99474 16.8691 4.37207L18.539 5.31674L17.697 4.93274L18.5644 5.3634C18.377 5.6794 17.7777 7.5714 17.6844 8.63074Z" fill="url(#paint2_linear_12240_11998)"/>
<path d="M13.2646 12.1652C10.9793 10.6072 8.51328 9.62791 7.68262 9.54657L7.87728 7.55591C9.30328 7.69591 12.1646 8.99458 14.3913 10.5132L13.2646 12.1652Z" fill="url(#paint3_linear_12240_11998)"/>
<path d="M17.9324 26.7154C14.1764 26.2981 9.73508 24.5821 8.27441 23.3261L9.23041 22.2141C10.3264 23.1554 14.4204 24.8494 18.0951 25.2574L17.9324 26.7154Z" fill="url(#paint4_linear_12240_11998)"/>
<path d="M19.5987 22.8787C19.0674 20.652 17.17 16.3387 17.1514 16.296L18.4934 15.7034C18.5734 15.8854 20.4634 20.182 21.0254 22.5387L19.5987 22.8787Z" fill="url(#paint5_linear_12240_11998)"/>
<path d="M26.096 13.2726C24.234 12.5126 21.1247 12.4473 20.6053 12.548C20.6073 12.5473 20.656 12.538 20.7273 12.506L19.916 10.678C20.6873 10.3366 24.6173 10.5093 26.8513 11.42L26.096 13.2726Z" fill="url(#paint6_linear_12240_11998)"/>
<path d="M23.6395 22.9652L23.2675 21.5459L23.4535 22.2552L23.2422 21.5532C23.2615 21.5465 25.4322 20.5139 26.5855 15.2759L27.7449 15.9159C26.3875 22.0772 23.9169 22.8919 23.6395 22.9652Z" fill="url(#paint7_linear_12240_11998)"/>
<path d="M24.9471 21.8067C24.8471 22.6201 24.3737 24.0001 23.9337 25.0001C23.9004 25.0334 23.8737 25.0601 23.8404 25.0867C23.8404 25.0867 23.8404 25.0934 23.8337 25.0934C23.6537 25.2467 23.4737 25.4001 23.2871 25.5401C22.8004 25.9134 22.2937 26.2467 21.7537 26.5401H21.7471C20.9671 26.9667 20.1337 27.3067 19.2604 27.5534C19.0671 27.6067 18.8737 27.6534 18.6804 27.7001C17.8804 27.3201 16.8004 26.6601 15.9871 25.7401C15.8404 25.5801 15.8737 25.3267 16.0471 25.2001C17.0737 24.4601 19.2004 22.4334 19.7871 21.5467C19.8737 21.4134 20.0204 21.3534 20.1737 21.3867C21.2271 21.6467 23.5604 21.5467 24.5271 21.4067C24.7671 21.3734 24.9804 21.5667 24.9471 21.8067Z" fill="url(#paint8_linear_12240_11998)"/>
<path d="M11.3054 9.72661C11.4708 9.39661 16.3948 7.36595 16.8421 7.41595C17.5174 7.49128 21.1934 11.4219 21.1934 11.6173C21.1934 11.8126 18.3128 16.7639 18.1028 16.8539C17.8928 16.9439 11.8688 15.6626 11.7148 15.5079C11.5608 15.3533 11.1401 10.0566 11.3054 9.72661Z" fill="url(#paint9_linear_12240_11998)"/>
<path d="M21.7996 5.5C20.1596 5.25333 18.5463 5.36 17.5263 5.36667C17.473 5.36667 17.4263 5.35333 17.373 5.33333C16.6396 4.96667 15.4663 4.40667 14.4463 4.11333C14.5463 4.09333 14.653 4.08667 14.7596 4.07333C14.8196 4.06667 14.8796 4.06 14.9396 4.05333C15.2863 4.01333 15.6396 4 15.9996 4H16.0263C18.0396 4.00667 19.933 4.5 21.593 5.38667C21.6596 5.42 21.733 5.46 21.7996 5.5Z" fill="url(#paint10_linear_12240_11998)"/>
<path d="M9.32654 6.03345C9.0932 6.70011 9.08654 7.58011 9.0332 8.38678C9.00654 8.69345 9.01987 8.72678 8.7532 8.88678C7.23987 9.80011 5.5132 11.4801 4.5332 12.5001C4.56654 12.3668 4.60654 12.2334 4.6532 12.1068C5.2332 10.4068 6.17987 8.88678 7.39987 7.63345C7.91987 7.10011 8.48654 6.61345 9.0932 6.18678C9.1732 6.13345 9.24654 6.08011 9.32654 6.03345Z" fill="url(#paint11_linear_12240_11998)"/>
<path d="M27.9995 16V16.2067C27.6462 16.6467 27.2769 16.9387 26.9075 16.9967C26.9455 16.0333 26.0075 12.886 25.3322 12.038C25.2675 11.9567 25.2482 11.854 25.2889 11.758C25.6615 10.876 25.5902 9.39134 25.4335 8.58667C25.6002 8.79334 25.7469 9.00667 25.8935 9.22C26.6002 10.24 27.1535 11.38 27.5069 12.6C27.7535 13.42 27.9069 14.2733 27.9669 15.1533C27.9929 15.4333 27.9995 15.7133 27.9995 16Z" fill="url(#paint12_linear_12240_11998)"/>
<path d="M5.58 18.3332L5 18.6599C4.92 18.5199 4.33333 17.2599 4 15.9332C4 15.6666 4.01333 15.4066 4.03333 15.1466V15.1399C4.05333 14.9132 4.07333 14.6932 4.1 14.4666C4.56667 16.5999 5.46667 18.1399 5.58 18.3332Z" fill="url(#paint13_linear_12240_11998)"/>
<path d="M10.4218 24.3027C9.98111 24.5687 9.03244 24.8367 8.22044 25.0327C8.16578 25.046 8.10844 25.032 8.06511 24.9947C7.70444 24.684 7.36711 24.3447 7.05378 23.9934C6.80711 23.72 6.58044 23.44 6.36044 23.1467V23.14C5.71378 22.2733 5.18044 21.3067 4.78711 20.2733V20.2667C4.79244 19.5373 4.81178 18.4833 4.89244 17.8687C4.91044 17.7327 5.06578 17.6713 5.17111 17.76C5.91178 18.384 7.68644 19.0607 8.28711 19.2093C8.34978 19.2247 8.40111 19.27 8.41311 19.3333C8.55378 20.0793 9.91311 23.3113 10.4691 24.0513C10.5311 24.1347 10.5111 24.2487 10.4218 24.3027Z" fill="url(#paint14_linear_12240_11998)"/>
<path opacity="0.8" d="M28 16V16.2067C27.98 17.3533 27.8 18.46 27.48 19.5067C27.1867 20.46 26.78 21.36 26.28 22.1933C26.28 22.1933 26.28 22.1933 26.2733 22.2C25.64 23.2533 24.8467 24.1933 23.9333 25C23.9 25.0333 23.8733 25.06 23.84 25.0867C23.84 25.0867 23.84 25.0933 23.8333 25.0933C23.6533 25.2467 23.4733 25.4 23.2867 25.54C22.8 25.9133 22.2933 26.2467 21.7533 26.54H21.7467C20.9667 26.9667 20.1333 27.3067 19.26 27.5533C19.0667 27.6067 18.8733 27.6533 18.68 27.7C17.98 27.86 17.2533 27.9533 16.5133 27.9867C16.5067 27.9867 16.5067 27.9867 16.5067 27.9867C16.3333 27.9933 16.1733 28 16 28C15.7067 28 15.42 27.9867 15.1333 27.9667C12.46 27.78 10.0333 26.7133 8.13333 25.0533C7.74667 24.7267 7.38667 24.3667 7.05333 23.9933C6.80667 23.72 6.58 23.44 6.36 23.1467V23.14C5.71333 22.2733 5.18 21.3067 4.78667 20.2733V20.2667C4.3 18.9867 4.02 17.6067 4.00667 16.1533C4 16.1 4 16.0533 4 16V15.9333C4 15.6667 4.01333 15.4067 4.03333 15.1467V15.14C4.05333 14.9133 4.07333 14.6933 4.1 14.4667C4.12667 14.28 4.15333 14.0933 4.18667 13.9133C4.27333 13.4267 4.38667 12.96 4.53333 12.5C4.56667 12.3667 4.60667 12.2333 4.65333 12.1067C5.23333 10.4067 6.18 8.88667 7.4 7.63333C7.92 7.1 8.48667 6.61333 9.09333 6.18667C9.17333 6.13333 9.24667 6.08 9.32667 6.03333C10.82 5.02 12.5667 4.34667 14.4467 4.11333C14.5467 4.09333 14.6533 4.08667 14.76 4.07333C14.82 4.06667 14.88 4.06 14.94 4.05333C15.2867 4.01333 15.64 4 16 4H16.0267C18.04 4.00667 19.9333 4.5 21.5933 5.38667C21.66 5.42 21.7333 5.46 21.8 5.5C22.8867 6.09333 23.8733 6.86 24.7133 7.75333C24.9733 8.02 25.2133 8.3 25.4333 8.58667C25.6 8.79333 25.7467 9.00667 25.8933 9.22C26.6 10.24 27.1533 11.38 27.5067 12.6C27.7533 13.42 27.9067 14.2733 27.9667 15.1533C27.9933 15.4333 28 15.7133 28 16Z" fill="url(#paint15_radial_12240_11998)"/>
<path d="M28 16V16.2067C27.98 17.3533 27.8 18.46 27.48 19.5067C27.1867 20.46 26.78 21.36 26.28 22.1933C26.28 22.1933 26.28 22.1933 26.2733 22.2C25.64 23.2533 24.8467 24.1933 23.9333 25C23.9 25.0333 23.8733 25.06 23.84 25.0867C23.84 25.0867 23.84 25.0933 23.8333 25.0933C23.6533 25.2467 23.4733 25.4 23.2867 25.54C22.8 25.9133 22.2933 26.2467 21.7533 26.54H21.7467C20.9667 26.9667 20.1333 27.3067 19.26 27.5533C19.0667 27.6067 18.8733 27.6533 18.68 27.7C17.98 27.86 17.2533 27.9533 16.5133 27.9867C16.5067 27.9867 16.5067 27.9867 16.5067 27.9867C16.3333 27.9933 16.1733 28 16 28C15.7067 28 15.42 27.9867 15.1333 27.9667C12.46 27.78 10.0333 26.7133 8.13333 25.0533C7.74667 24.7267 7.38667 24.3667 7.05333 23.9933C6.80667 23.72 6.58 23.44 6.36 23.1467V23.14C5.71333 22.2733 5.18 21.3067 4.78667 20.2733V20.2667C4.3 18.9867 4.02 17.6067 4.00667 16.1533C4 16.1 4 16.0533 4 16V15.9333C4 15.6667 4.01333 15.4067 4.03333 15.1467V15.14C4.05333 14.9133 4.07333 14.6933 4.1 14.4667C4.12667 14.28 4.15333 14.0933 4.18667 13.9133C4.27333 13.4267 4.38667 12.96 4.53333 12.5C4.56667 12.3667 4.60667 12.2333 4.65333 12.1067C5.23333 10.4067 6.18 8.88667 7.4 7.63333C7.92 7.1 8.48667 6.61333 9.09333 6.18667C9.17333 6.13333 9.24667 6.08 9.32667 6.03333C10.82 5.02 12.5667 4.34667 14.4467 4.11333C14.5467 4.09333 14.6533 4.08667 14.76 4.07333C14.82 4.06667 14.88 4.06 14.94 4.05333C15.2867 4.01333 15.64 4 16 4H16.0267C18.04 4.00667 19.9333 4.5 21.5933 5.38667C21.66 5.42 21.7333 5.46 21.8 5.5C22.8867 6.09333 23.8733 6.86 24.7133 7.75333C24.9733 8.02 25.2133 8.3 25.4333 8.58667C25.6 8.79333 25.7467 9.00667 25.8933 9.22C26.6 10.24 27.1533 11.38 27.5067 12.6C27.7533 13.42 27.9067 14.2733 27.9667 15.1533C27.9933 15.4333 28 15.7133 28 16Z" fill="url(#paint16_radial_12240_11998)"/>
<defs>
<radialGradient id="paint0_radial_12240_11998" cx="0" cy="0" r="1" gradientUnits="userSpaceOnUse" gradientTransform="translate(11.4613 9.518) scale(18.8807)">
<stop stop-color="#FFFFFE"/>
<stop offset="0.525" stop-color="#E9E4DA"/>
<stop offset="1" stop-color="#ABA8A2"/>
</radialGradient>
<linearGradient id="paint1_linear_12240_11998" x1="9.7894" y1="16.081" x2="11.2881" y2="17.35" gradientUnits="userSpaceOnUse">
<stop offset="0.165" stop-color="#CCC8C1" stop-opacity="0"/>
<stop offset="0.311" stop-color="#CCC8C1" stop-opacity="0.5"/>
<stop offset="0.476" stop-color="#A19F99" stop-opacity="0.8"/>
<stop offset="0.525" stop-color="#A19F99"/>
<stop offset="0.62" stop-color="#F0EAE1"/>
<stop offset="0.75" stop-color="#F0E9E0"/>
<stop offset="0.901" stop-color="#F0E9E0" stop-opacity="0"/>
</linearGradient>
<linearGradient id="paint2_linear_12240_11998" x1="17.885" y1="6.78412" x2="16.3235" y2="6.42338" gradientUnits="userSpaceOnUse">
<stop offset="0.077" stop-color="#F0F0F0" stop-opacity="0"/>
<stop offset="0.235" stop-color="#F0F0F0" stop-opacity="0.8"/>
<stop offset="0.38" stop-color="#F0F0F0"/>
<stop offset="0.454" stop-color="#CCCAC3"/>
<stop offset="0.518" stop-color="#A8A6A2"/>
<stop offset="0.573" stop-color="#CCCAC3"/>
<stop offset="0.673" stop-color="#CCC8C1" stop-opacity="0.5"/>
<stop offset="0.903" stop-color="#E8E3DB" stop-opacity="0"/>
</linearGradient>
<linearGradient id="paint3_linear_12240_11998" x1="11.236" y1="8.83791" x2="10.4553" y2="10.3559" gradientUnits="userSpaceOnUse">
<stop offset="0.119" stop-color="#E6E1D9" stop-opacity="0"/>
<stop offset="0.317" stop-color="#CCC8C1" stop-opacity="0"/>
<stop offset="0.525" stop-color="#C4C2BB"/>
<stop offset="0.62" stop-color="white"/>
<stop offset="0.734" stop-color="white"/>
<stop offset="0.923" stop-color="white" stop-opacity="0"/>
</linearGradient>
<linearGradient id="paint4_linear_12240_11998" x1="13.2977" y1="24.1506" x2="12.994" y2="25.5052" gradientUnits="userSpaceOnUse">
<stop stop-color="#B3B0AA" stop-opacity="0"/>
<stop offset="0.264" stop-color="#B3B0AA" stop-opacity="0.8"/>
<stop offset="0.33" stop-color="#ADAAA4" stop-opacity="0.867"/>
<stop offset="0.419" stop-color="#9C9995" stop-opacity="0.957"/>
<stop offset="0.462" stop-color="#918F8B"/>
<stop offset="0.499" stop-color="#8B8985"/>
<stop offset="0.533" stop-color="#807E7B"/>
<stop offset="0.551" stop-color="#868481"/>
<stop offset="0.577" stop-color="#979491"/>
<stop offset="0.605" stop-color="#B4AEAB"/>
<stop offset="0.629" stop-color="#D1CAC6"/>
<stop offset="0.728" stop-color="#D1CAC6"/>
<stop offset="1" stop-color="#D1CAC6" stop-opacity="0"/>
</linearGradient>
<linearGradient id="paint5_linear_12240_11998" x1="18.44" y1="19.6314" x2="19.872" y2="19.078" gradientUnits="userSpaceOnUse">
<stop stop-color="#D9D4CF" stop-opacity="0"/>
<stop offset="0.265" stop-color="#D9D4CF" stop-opacity="0.826"/>
<stop offset="0.289" stop-color="#D9D4CF" stop-opacity="0.9"/>
<stop offset="0.321" stop-color="#D6D1CC" stop-opacity="0.9"/>
<stop offset="0.347" stop-color="#CCC7C2" stop-opacity="0.9"/>
<stop offset="0.371" stop-color="#BAB6B0" stop-opacity="0.9"/>
<stop offset="0.374" stop-color="#B8B4AE" stop-opacity="0.9"/>
<stop offset="0.429" stop-color="#A29E99" stop-opacity="0.9"/>
<stop offset="0.494" stop-color="#8C8984" stop-opacity="0.9"/>
<stop offset="0.555" stop-color="#A4A19C" stop-opacity="0.9"/>
<stop offset="0.621" stop-color="#BAB7B1" stop-opacity="0.9"/>
<stop offset="0.645" stop-color="#C3BFBA" stop-opacity="0.9"/>
<stop offset="0.712" stop-color="#D9D4CF" stop-opacity="0.9"/>
<stop offset="0.976" stop-color="#D9D4CF" stop-opacity="0.074"/>
<stop offset="1" stop-color="#D9D4CF" stop-opacity="0"/>
</linearGradient>
<linearGradient id="paint6_linear_12240_11998" x1="23.4034" y1="10.639" x2="23.3135" y2="12.5549" gradientUnits="userSpaceOnUse">
<stop offset="0.219" stop-color="#B3AFA9" stop-opacity="0"/>
<stop offset="0.349" stop-color="#B3AFA9" stop-opacity="0.5"/>
<stop offset="0.449" stop-color="#B3B0AB"/>
<stop offset="0.53" stop-color="#8A8884"/>
<stop offset="0.62" stop-color="#E0DBD2"/>
<stop offset="0.734" stop-color="#E0DBD2"/>
<stop offset="0.934" stop-color="#E0DCD3" stop-opacity="0"/>
</linearGradient>
<linearGradient id="paint7_linear_12240_11998" x1="25.2609" y1="19.1885" x2="26.3529" y2="19.6845" gradientUnits="userSpaceOnUse">
<stop stop-color="#A5A39D" stop-opacity="0"/>
<stop offset="0.168" stop-color="#A5A39D" stop-opacity="0.8"/>
<stop offset="0.253" stop-color="#9F9E98" stop-opacity="0.863"/>
<stop offset="0.368" stop-color="#8E8E89" stop-opacity="0.949"/>
<stop offset="0.437" stop-color="#80827D"/>
<stop offset="0.53" stop-color="#6E706B"/>
<stop offset="0.64" stop-color="#C4BDB9"/>
<stop offset="0.761" stop-color="#C4BDB9"/>
<stop offset="1" stop-color="#C4C1B9" stop-opacity="0"/>
</linearGradient>
<linearGradient id="paint8_linear_12240_11998" x1="21.7284" y1="26.5774" x2="19.7424" y2="22.0954" gradientUnits="userSpaceOnUse">
<stop stop-color="#292A2A"/>
<stop offset="0.706" stop-color="#323130"/>
<stop offset="1" stop-color="#43423F"/>
</linearGradient>
<linearGradient id="paint9_linear_12240_11998" x1="17.9434" y1="16.9239" x2="14.1394" y2="8.33728" gradientUnits="userSpaceOnUse">
<stop stop-color="#373633"/>
<stop offset="0.208" stop-color="#403E3B"/>
<stop offset="0.54" stop-color="#575552"/>
<stop offset="0.581" stop-color="#5A5855"/>
<stop offset="0.995" stop-color="#605F5C"/>
</linearGradient>
<linearGradient id="paint10_linear_12240_11998" x1="17.9796" y1="5.40067" x2="18.529" y2="3.12067" gradientUnits="userSpaceOnUse">
<stop stop-color="#585754"/>
<stop offset="1" stop-color="#3A3A39"/>
</linearGradient>
<linearGradient id="paint11_linear_12240_11998" x1="6.47787" y1="8.86878" x2="7.6692" y2="9.91811" gradientUnits="userSpaceOnUse">
<stop stop-color="#4D4C4A"/>
<stop offset="1" stop-color="#5E5C59"/>
</linearGradient>
<linearGradient id="paint12_linear_12240_11998" x1="28.1189" y1="12.7347" x2="25.6929" y2="12.8053" gradientUnits="userSpaceOnUse">
<stop stop-color="#292A2A"/>
<stop offset="0.774" stop-color="#343332"/>
<stop offset="1" stop-color="#3F3E3A"/>
</linearGradient>
<linearGradient id="paint13_linear_12240_11998" x1="4.73133" y1="16.4986" x2="4.23667" y2="16.6746" gradientUnits="userSpaceOnUse">
<stop stop-color="#CCC8C1" stop-opacity="0"/>
<stop offset="0.143" stop-color="#CCC8C1" stop-opacity="0.5"/>
<stop offset="0.295" stop-color="#C6C2BB"/>
<stop offset="0.424" stop-color="#A8A6A0" stop-opacity="0.88"/>
<stop offset="0.552" stop-color="#A6A49E"/>
<stop offset="0.678" stop-color="#E4DFD6"/>
<stop offset="0.835" stop-color="#F0E9E0"/>
<stop offset="1" stop-color="#F0E9E0" stop-opacity="0"/>
</linearGradient>
<linearGradient id="paint14_linear_12240_11998" x1="6.89978" y1="24.7687" x2="8.09111" y2="19.18" gradientUnits="userSpaceOnUse">
<stop stop-color="#343432"/>
<stop offset="0.519" stop-color="#383734"/>
<stop offset="1" stop-color="#504E4A"/>
</linearGradient>
<radialGradient id="paint15_radial_12240_11998" cx="0" cy="0" r="1" gradientTransform="matrix(14.3821 11.5053 -15.0875 18.8593 12.3259 10.7658)" gradientUnits="userSpaceOnUse">
<stop offset="0.662" stop-color="#2C2837" stop-opacity="0"/>
<stop offset="1" stop-color="#2C2837"/>
</radialGradient>
<radialGradient id="paint16_radial_12240_11998" cx="0" cy="0" r="1" gradientUnits="userSpaceOnUse" gradientTransform="translate(11.4613 9.518) scale(18.8807)">
<stop stop-color="#FFFFFE" stop-opacity="0.3"/>
<stop offset="0.807" stop-color="#FDFDFC" stop-opacity="0"/>
</radialGradient>
</defs>
</svg>
