<svg xmlns="http://www.w3.org/2000/svg" width="24" height="24" viewBox="0 0 24 24">
  <path fill="#ffffff" d="M14.94 5.19A4.38 4.38 0 0 0 16 2a4.44 4.44 0 0 0-3 1.52a4.17 4.17 0 0 0-1 3.09a3.69 3.69 0 0 0 2.94-1.42m2.52 7.44a4.51 4.51 0 0 1 2.16-3.81a4.66 4.66 0 0 0-3.66-1.98c-1.56-.16-3 .91-3.83.91s-2-.89-3.3-.87a4.92 4.92 0 0 0-4.14 2.53c-1.77 3.07-.45 7.62 1.27 10.12c.84 1.22 1.84 2.59 3.16 2.54s1.7-.82 3.19-.82s1.91.82 3.21.79s2.14-1.24 2.95-2.47a10.9 10.9 0 0 0 1.34-2.75a4.35 4.35 0 0 1-2.6-3.99"/>
</svg>
